<svg id="Group_109520" data-name="Group 109520" xmlns="http://www.w3.org/2000/svg" width="27.534" height="15.297" viewBox="0 0 27.534 15.297">
  <path id="Path_87587" data-name="Path 87587" d="M0,1.967,1.648.32A1.09,1.09,0,0,1,3.19.32L13.779,10.908l2.88-2.88a1.089,1.089,0,0,1,1.54,0l1.649,1.649-5.3,5.3a1.089,1.089,0,0,1-1.54,0l-1.649-1.649,0,0Z" transform="translate(0 0)" fill="#13359a" opacity="0.469"/>
  <path id="Path_87588" data-name="Path 87588" d="M19.849,1.967,18.2.32a1.09,1.09,0,0,0-1.542,0L6.07,10.908l-2.88-2.88a1.089,1.089,0,0,0-1.54,0L0,9.677l5.3,5.3a1.089,1.089,0,0,0,1.54,0L8.49,13.329l0,0Z" transform="translate(7.686 0)" fill="#13359a"/>
</svg>
