<svg xmlns="http://www.w3.org/2000/svg" width="75.377" height="77.105" viewBox="0 0 75.377 77.105">
  <g id="Google_Icon" transform="translate(-755.039 185.829)">
    <g id="Group_109462" data-name="Group 109462" transform="translate(755.039 -185.829)">
      <path id="Path_91588" data-name="Path 91588" d="M285.5,257.233c9.109-8.5,13.157-22.671,10.728-36.233H260v14.979h20.647a17.047,17.047,0,0,1-7.692,11.538Z" transform="translate(-221.549 -189.457)" fill="#fff" opacity="0.629"/>
      <path id="Path_91589" data-name="Path 91589" d="M90,301.918a38.864,38.864,0,0,0,59.916,11.943l-12.55-9.716C126.638,311.23,108.825,308.6,102.752,292Z" transform="translate(-85.96 -246.086)" fill="#fff" opacity="0.968"/>
      <path id="Path_91590" data-name="Path 91590" d="M86.832,194.695a23.08,23.08,0,0,1,0-14.777L74.08,170a39.111,39.111,0,0,0,0,34.613Z" transform="translate(-70.039 -148.781)" fill="#fff" opacity="0.71"/>
      <path id="Path_91591" data-name="Path 91591" d="M102.752,96.309c4.453-13.967,23.48-22.064,36.233-10.121l11.133-10.931C134.329,60.076,103.562,60.683,90,86.39Z" transform="translate(-85.96 -65.171)" fill="#fff" opacity="0.359"/>
    </g>
  </g>
</svg>
