<svg width="44" height="44" viewBox="0 0 44 44" fill="none" xmlns="http://www.w3.org/2000/svg">
<path opacity="0.629" d="M36.8946 38.433C42.0596 33.613 44.3546 25.579 42.9776 17.889H22.4336V26.382H34.1396C33.9116 27.7171 33.4056 28.9894 32.6543 30.1164C31.903 31.2434 30.9233 32.2 29.7786 32.924L36.8946 38.433Z" fill="#4F717E"/>
<path opacity="0.968" d="M2.92188 31.662C4.43174 34.6361 6.59703 37.2287 9.25455 39.2442C11.9121 41.2598 14.9924 42.6458 18.2635 43.2978C21.5346 43.9497 24.911 43.8506 28.1382 43.0079C31.3653 42.1653 34.3591 40.601 36.8939 38.433L29.7779 32.924C28.0924 34.0149 26.1796 34.7055 24.186 34.9429C22.1924 35.1802 20.1709 34.958 18.2764 34.2933C16.382 33.6286 14.6648 32.5391 13.2565 31.1081C11.8482 29.6772 10.7862 27.9429 10.1519 26.038L2.92188 31.662Z" fill="#4F717E"/>
<path opacity="0.71" d="M10.1521 26.036C9.234 23.3188 9.234 20.3752 10.1521 17.658L2.92213 12.036C1.41614 15.088 0.632813 18.4457 0.632813 21.849C0.632812 25.2523 1.41614 28.61 2.92213 31.662L10.1521 26.036Z" fill="#4F717E"/>
<path opacity="0.359" d="M10.1519 17.66C12.6769 9.74101 23.4649 5.15001 30.6959 11.922L37.0079 5.72201C34.5331 3.44465 31.5622 1.77453 28.3304 0.843847C25.0985 -0.0868372 21.6944 -0.252546 18.3875 0.359831C15.0805 0.972208 11.9615 2.34587 9.27721 4.37209C6.59293 6.39832 4.41708 9.02149 2.92188 12.034L10.1519 17.66Z" fill="#4F717E"/>
</svg>
