<svg id="HID_Icon" xmlns="http://www.w3.org/2000/svg" xmlns:xlink="http://www.w3.org/1999/xlink" width="88.32" height="87.839" viewBox="0 0 88.32 87.839">
  <defs>
    <clipPath id="clip-path">
      <rect id="Rectangle_35244" data-name="Rectangle 35244" width="88.32" height="87.839" fill="#fff"/>
    </clipPath>
  </defs>
  <g id="Group_96757" data-name="Group 96757" transform="translate(0 0)" clip-path="url(#clip-path)">
    <path id="Path_61031" data-name="Path 61031" d="M88.321,43.875c-.367.32-.625.52-.854.749q-5.761,5.75-11.525,11.5a1.6,1.6,0,0,0-.509,1.277c.022,5.559,0,11.117.032,16.676.005.808-.177,1.057-1.024,1.051-5.492-.041-10.985-.015-16.477-.03a1.748,1.748,0,0,0-1.386.56c-3.909,3.952-7.857,7.865-11.768,11.815-.479.484-.717.5-1.231.017-2.8-2.608-5.352-5.462-8.091-8.129-1.028-1-2.1-1.969-3.024-3.057a3.518,3.518,0,0,0-2.943-1.2c-5.195.01-10.389-.014-15.584.023-.79.006-.98-.218-.976-.989.034-5.393,0-10.786.033-16.179a2.417,2.417,0,0,0-.748-1.829C8.808,52.682,5.381,49.231,1.916,45.818c-.509-.5-1.078-.954-1.607-1.445-.348-.323-.455-.538-.044-.936,3.7-3.588,7.218-7.365,11.023-10.849a4.765,4.765,0,0,0,1.729-3.881c-.106-5.027-.022-10.058-.056-15.087-.005-.744.188-.935.931-.93,5.459.033,10.919.007,16.378.032a1.951,1.951,0,0,0,1.549-.623C35.636,8.243,39.494,4.427,43.3.564c.658-.668,1.108-.828,1.749-.013a40.206,40.206,0,0,0,4.168,4.3c2.6,2.445,5.061,5.017,7.6,7.518A1.436,1.436,0,0,0,58,12.706c5.492,0,10.985.017,16.477-.016.772,0,1,.187.99.978-.08,5.622.051,11.245-.06,16.868-.015.781.763,1.32,1.3,1.861q5.566,5.594,11.165,11.155a3.6,3.6,0,0,0,.452.323M58.272,16.065a4.1,4.1,0,0,0,.746.694c1.782,1.786,2.344,1.686.435,3.635-1.332,1.36-1.31,1.381-3.388.331-1.41-.713-1.409-.712-1.945.783Q50.757,30.87,47.4,40.236c-.053.148-.284.337-.045.518.2.151.369-.045.53-.1,1.614-.566,3.215-1.171,4.831-1.731,3.074-1.064,6.131-2.181,9.192-3.275,1.6-.573,3.232-1.156,4.823-1.8,1.365-.556,1.541-.842.6-2.066a5.264,5.264,0,0,1-.508-.82c-.584-1.149-.55-1.441.482-2.094a6.47,6.47,0,0,0,1.169-1.038,1.006,1.006,0,0,1,1.671,0,6.764,6.764,0,0,0,1.956,1.713c0-4.374-.006-8.632.008-12.89,0-.508-.228-.593-.664-.592-4.331.01-8.662.006-13.178.006M73.885,53.424a1.058,1.058,0,0,0,.283-.13c3-2.989,5.98-5.994,9-8.963.5-.493.173-.7-.136-1q-4.253-4.236-8.5-8.476c-.149-.148-.249-.4-.615-.352,0,.914-.013,1.831.006,2.748.009.426-.114.6-.574.723-1.089.3-2.218.038-3.3.34a.481.481,0,0,1-.627-.558c.074-1.028-.575-1.842-.783-2.781-.113-.507-.3-.431-.685-.275-1.516.615-3,1.315-4.476,2.005-1.9.891-3.759,1.9-5.658,2.809-2.694,1.294-5.4,2.57-8.089,3.868-.272.131-.716.192-.726.528-.011.366.435.443.72.579,2.594,1.241,5.2,2.459,7.79,3.708q5.126,2.473,10.23,4.989c.546.269.781.23.914-.444.162-.817.574-1.586.721-2.4.1-.57.33-.727.838-.692,1.078.073,2.156.153,3.235.2.45.018.439.287.438.6,0,.98,0,1.959,0,2.989m-1.778,4.719a10.039,10.039,0,0,0-1.863,1.7,1.055,1.055,0,0,1-1.522.178c-.816-.506-1.318-1.359-2.163-1.824-.432-.237-.289-.508-.019-.863a10.185,10.185,0,0,0,.892-1.6c.624-1.235.6-1.27-.731-1.725-2.5-.859-5-1.713-7.492-2.6-3.746-1.334-7.484-2.693-11.222-4.048-.189-.069-.385-.186-.544-.026-.188.189.051.354.11.522q1.207,3.43,2.429,6.854c1.476,4.143,2.969,8.28,4.416,12.433.211.605.433.685.946.38.8-.476,1.63-.9,2.424-1.386.273-.167.448-.34.722,0,.637.786,1.294,1.557,1.96,2.319.4.461.436.8-.07,1.268a10.574,10.574,0,0,0-1.968,2.1c4.375,0,8.639-.009,12.9.011.585,0,.811-.138.807-.769-.025-4.232-.013-8.464-.013-12.924M53.913,14.222c-3.18-3.186-6.2-6.191-9.19-9.228-.507-.515-.82-.459-1.279.028-.929.986-1.908,1.925-2.866,2.884q-2.736,2.735-5.466,5.475c-.169.17-.524.306-.383.613.133.289.472.136.717.143.727.019,1.455.019,2.182,0,.4-.009.6.112.6.559a13.1,13.1,0,0,0,.189,3.035.678.678,0,0,1-.7.926,13.012,13.012,0,0,0-2.241.605c-.665.145-.685.5-.412,1.065C36.2,22.659,37.306,25,38.412,27.347q2.639,5.591,5.273,11.185c.106.224.152.549.479.565.308.015.3-.319.385-.492,2.863-6.159,5.765-12.3,8.854-18.349.141-.276.317-.642-.153-.8-.78-.262-1.393-.922-2.345-.808-.728.087-1.22-.257-1.172-1.157a12.831,12.831,0,0,0,.215-2.538c-.081-.565.16-.759.721-.741,1.013.033,2.028.009,3.244.009M14.535,34.42a1.26,1.26,0,0,0-.833.531c-2.93,2.911-5.844,5.838-8.8,8.726-.348.34-.094.432.064.59q4.446,4.461,8.9,8.908c.108.108.211.287.4.22.252-.088.172-.325.174-.506.01-.727.017-1.455,0-2.182-.01-.41.059-.592.556-.7.919-.2,1.842-.041,2.739-.187.833-.135,1.148.28,1.184.935a10.031,10.031,0,0,0,.586,1.838c.178.762.528.681,1.058.429,1.806-.858,3.623-1.694,5.43-2.553,4.526-2.152,9.048-4.311,13.621-6.491a27.725,27.725,0,0,0-4.2-2.049C31.543,40,27.6,38.192,23.674,36.339c-1.025-.484-2.057-.955-3.078-1.448-.569-.274-.961-.254-1.143.463a16.829,16.829,0,0,0-.638,2.218c-.078.717-.421.745-.975.771-.893.041-1.759-.181-2.639-.2-.53-.01-.688-.19-.675-.693.026-.985.008-1.972.008-3.032M53.762,73.629c-1.1,0-2.044,0-2.992,0-.289,0-.625.066-.621-.406.01-1.048-.292-2.073-.216-3.132.037-.513.155-.742.722-.817a11.085,11.085,0,0,0,1.943-.567c.737-.242,1.083-.549.622-1.443-1.282-2.482-2.455-5.02-3.659-7.541-1.657-3.472-3.3-6.95-4.96-10.42-.111-.232-.064-.662-.475-.621-.3.03-.347.375-.453.6-1.4,2.959-2.773,5.928-4.17,8.888q-2.208,4.679-4.444,9.345c-.264.551-.308.878.449,1.036.782.163,1.514.566,2.3.727.52.107.671.324.632.787-.08.941-.075,1.9-.1,2.83-.023.74-.221.737-.723.728-.661-.012-1.323-.036-1.983-.025-.278,0-.665-.165-.807.167s.234.5.429.694c2.134,2.166,4.293,4.308,6.4,6.5A17.987,17.987,0,0,1,44.084,83.3l9.677-9.675M41.073,40.751c-2.4-6.664-4.746-13.153-7.046-19.661-.307-.868-.637-1-1.387-.527-.807.507-1.731,1.391-2.481,1.28-.89-.131-1.335-1.436-2.08-2.135a3.221,3.221,0,0,1-.33-.37c-.295-.377-.459-.694.058-1.091a13.219,13.219,0,0,0,1.478-1.464c.166-.175.514-.3.37-.619-.115-.254-.413-.133-.626-.133-3.97-.007-7.94.006-11.91-.017-.6,0-.83.145-.783.773.132,1.735.139,3.492.109,5.213-.039,2.266.015,4.538-.063,6.805-.008.223-.16.524.233.732.634-.657,1.29-1.311,1.914-2,.308-.338.48-.332.867-.033a26.926,26.926,0,0,0,2.381,2.022c.343.207.433.431.106.861-.5.664-.805,1.479-1.261,2.187-.41.637-.152.935.436,1.142,1.367.483,2.739.949,4.1,1.443,4.121,1.494,8.228,3.03,12.365,4.479a18.167,18.167,0,0,0,3.549,1.109M16.423,58.2c-.246.241-.156.486-.156.7-.006,3.97.021,7.94-.026,11.909-.01.828.284.955,1.012.949,3.837-.032,7.675-.011,11.512-.023.3,0,.749.2.888-.166s-.315-.525-.532-.746c-1.84-1.871-1.844-1.868,0-3.807A8.457,8.457,0,0,0,29.8,66.3c.289-.387.561-.271.89-.07.717.439,1.434.88,2.179,1.268a.58.58,0,0,0,.925-.392c.294-.919.626-1.827.953-2.735,1.938-5.391,3.885-10.779,5.8-16.178.094-.264.435-.594.154-.873s-.632.073-.9.167c-3.178,1.114-6.333,2.293-9.5,3.429q-4.657,1.669-9.335,3.28c-.589.2-.608.505-.4.964a14.668,14.668,0,0,0,1.291,2.268c.168.247.5.555.024.909-.755.562-1.492,1.154-2.188,1.786-.593.539-1.047.512-1.508-.141A8.877,8.877,0,0,0,16.423,58.2" transform="translate(0 0)" fill="#fff"/>
  </g>
</svg>
