<svg xmlns="http://www.w3.org/2000/svg" xmlns:xlink="http://www.w3.org/1999/xlink" width="23.949" height="20.93" viewBox="0 0 23.949 20.93">
  <defs>
    <clipPath id="clip-path">
      <rect id="Rectangle_18056" data-name="Rectangle 18056" width="23.949" height="20.93" fill="#9a7a44" stroke="#f6f5f4" stroke-width="0.7"/>
    </clipPath>
  </defs>
  <g id="Logout" transform="translate(-196 -79)">
    <g id="Group_56420" data-name="Group 56420" transform="translate(196 79)">
      <g id="Group_56352" data-name="Group 56352" clip-path="url(#clip-path)">
        <path id="Path_42731" data-name="Path 42731" d="M59.821,23.6c0-.54.019-1.025,0-1.508a2.148,2.148,0,0,0-1.369-2.05,1.925,1.925,0,0,0-2.192.368q-2.792,2.736-5.546,5.51a1.945,1.945,0,0,0,.017,2.847Q53.44,31.5,56.2,34.2a1.958,1.958,0,0,0,2.279.433,2.193,2.193,0,0,0,1.337-2.006,9.461,9.461,0,0,0,0-1.159c-.019-.306.076-.413.395-.409,1.26.016,2.521.025,3.78,0a3.65,3.65,0,0,0,1.235-.227,1.984,1.984,0,0,0,1.295-1.958c.018-1.01.012-2.021.006-3.031A2.2,2.2,0,0,0,64.293,23.6c-1.322-.012-2.645,0-3.968,0h-.5m-2.246,8.681-.112.039a2.73,2.73,0,0,1-.218-.178c-1.527-1.524-3.048-3.055-4.583-4.571-.216-.214-.159-.331.021-.511q2.256-2.243,4.5-4.5a4.1,4.1,0,0,1,.369-.283c.01.216.02.336.02.456,0,.536-.011,1.073,0,1.609.029,1.084.439,1.473,1.526,1.474,1.6,0,3.195.008,4.792-.006.335,0,.467.087.455.443-.025.723-.027,1.448,0,2.17.014.364-.126.441-.456.438-1.6-.013-3.195-.006-4.792-.006-.125,0-.25,0-.374.007a1.016,1.016,0,0,0-1.092,1c-.07.654-.047,1.318-.062,1.978,0,.144,0,.289,0,.433" transform="translate(-50.098 -16.88)" fill="#9a7a44" stroke="#f6f5f4" stroke-width="0.7"/>
        <path id="Path_42732" data-name="Path 42732" d="M8.949,10.563q0-3.163,0-6.326A4.165,4.165,0,0,0,5.725.093,3.685,3.685,0,0,0,4.872.007Q3.056-.007,1.24.005A1.061,1.061,0,0,0,.039.89,1.048,1.048,0,0,0,.806,2.122a3.18,3.18,0,0,0,.665.075c1.048.008,2.1,0,3.145,0A1.942,1.942,0,0,1,6.738,4.346q0,6.139,0,12.278A1.918,1.918,0,0,1,4.694,18.7c-1.16.007-2.321,0-3.482,0a1.122,1.122,0,0,0-1.078.611A.956.956,0,0,0,.256,20.46a1.377,1.377,0,0,0,.825.431c1.371.035,2.749.074,4.114-.026a4.1,4.1,0,0,0,3.754-4.239c-.006-2.021,0-4.043,0-6.064" transform="translate(14.999 0.001)" fill="#9a7a44" stroke="#f6f5f4" stroke-width="0.7"/>
      </g>
    </g>
  </g>
</svg>
