<svg xmlns="http://www.w3.org/2000/svg" width="92.3" height="86.041" viewBox="0 0 92.3 86.041">
  <g id="Yasir_Logo_SVG" transform="translate(0 -0.007)">
    <g id="Group_109450" data-name="Group 109450" transform="translate(12.414 0.007)">
      <path id="Path_87594" data-name="Path 87594" d="M646.442,18.826l14.4-14.4L657.24.817a2.347,2.347,0,0,0-3.319,0l0,0L646.44,8.293,640.828,2.68,635.56,7.947l10.881,10.879Z" transform="translate(-593.374 -0.117)" fill="#c0cae3"/>
      <path id="Path_87595" data-name="Path 87595" d="M518.633,263.163l-3.043-3.042,7.642-7.641,5.267,5.268-5.415,5.415a3.148,3.148,0,0,1-4.452,0h0" transform="translate(-483.71 -230.791)" fill="#8397c9"/>
      <rect id="Rectangle_52803" data-name="Rectangle 52803" width="9.778" height="7.448" transform="translate(40.206 21.004) rotate(-45)" fill="#8397c9"/>
      <path id="Path_87596" data-name="Path 87596" d="M350.023.732a2.381,2.381,0,0,0-3.367,0L323.6,23.792l-5.63-5.629L312.7,23.43l5.629,5.63,0,0,3.593,3.593a2.367,2.367,0,0,0,3.348,0h0L353.606,4.316,350.023.732Z" transform="translate(-298.25 -0.033)" fill="#4a66b0"/>
      <path id="Path_87597" data-name="Path 87597" d="M187.717,4.291,184.128.7a2.375,2.375,0,0,0-3.358,0L157.715,23.758l-6.271-6.271a2.373,2.373,0,0,0-3.354,0l-3.59,3.59,11.542,11.543a2.371,2.371,0,0,0,3.354,0h0l3.59-3.591,0,0Z" transform="translate(-144.5 -0.007)" fill="#133698"/>
    </g>
    <g id="Group_109452" data-name="Group 109452" transform="translate(0 43.002)">
      <path id="Path_91572" data-name="Path 91572" d="M10.206,794.739a12.272,12.272,0,0,1-4.058-.778,13.388,13.388,0,0,1-4.057-2.291l1.893-3.785q1.6.505,2.838.778a10.885,10.885,0,0,0,2.334.274,8.587,8.587,0,0,0,4.141-.966,7.284,7.284,0,0,0,2.8-2.608,6.768,6.768,0,0,0,1.009-3.616,5.558,5.558,0,0,0-.38-2.186,9.618,9.618,0,0,0-.966-1.724q-.59-.842-1.3-1.936l7.947,4v1.85a13.425,13.425,0,0,1-.42,3.154,15.182,15.182,0,0,1-1.325,3.448,13.761,13.761,0,0,1-2.334,3.195,10.483,10.483,0,0,1-3.448,2.334,11.8,11.8,0,0,1-4.667.862" transform="translate(-1.91 -752.239)" fill="#09183d"/>
      <path id="Path_91573" data-name="Path 91573" d="M126.27,681.425a12.186,12.186,0,0,1-2.755-.295,8.913,8.913,0,0,1-2.375-.9,9.8,9.8,0,0,1-2.082-1.576,20.1,20.1,0,0,1-2-2.313l-5.341-7.318,4.626-5.72,5.424,9.378a14.928,14.928,0,0,0,1.219,1.746,2.869,2.869,0,0,0,1.3.9,6.406,6.406,0,0,0,1.976.252h.42v5.844h-.42Z" transform="translate(-102.122 -649.313)" fill="#09183d"/>
      <path id="Path_91574" data-name="Path 91574" d="M272.542,806.26h.422V812.1h-.422q-1.262,0-1.262-2.944,0-2.9,1.262-2.9" transform="translate(-247.975 -779.991)" fill="#09183d"/>
      <path id="Path_91575" data-name="Path 91575" d="M285.97,715.9v-5.844h10.844a17.171,17.171,0,0,0,.442-1.913,18.484,18.484,0,0,0,.252-2.271,20.609,20.609,0,0,0-.022-2.46l7.023-2.4q-.548,2.692-1.073,4.668a30.888,30.888,0,0,1-1.177,3.6,28.717,28.717,0,0,1-1.515,3.173q-.863,1.555-2.123,3.448H285.97Z" transform="translate(-261.403 -683.783)" fill="#09183d"/>
      <path id="Path_91576" data-name="Path 91576" d="M408.219,715.905a19.843,19.843,0,0,1-4.9-.526,15.371,15.371,0,0,1-3.343-1.219A12.693,12.693,0,0,1,398,712.92l2.4-4.205a10.251,10.251,0,0,0,2.67.988,14.815,14.815,0,0,0,3.387.358h4.539a10.159,10.159,0,0,0,.442-1.766,19.5,19.5,0,0,0,.252-2.354q.062-1.263.021-2.523l7.064-2.4q-.589,2.692-1.136,4.668a37.228,37.228,0,0,1-1.178,3.6,24.19,24.19,0,0,1-1.512,3.174q-.883,1.555-2.144,3.448h-4.585Z" transform="translate(-363.809 -683.792)" fill="#09183d"/>
      <path id="Path_91577" data-name="Path 91577" d="M577.536,689.506a17.54,17.54,0,0,1-4.6-.526,14.659,14.659,0,0,1-3.238-1.261q-1.325-.735-2.334-1.409l3.112-3.742a12.093,12.093,0,0,0,5.509,1.094h5.34q-.338-1.135-.715-2.165t-.863-2.167q-.483-1.135-1.2-2.606l6.854-4.584q.336,2.566.547,5.362a38.078,38.078,0,0,1-.022,5.781,28.305,28.305,0,0,1-1.24,6.223h-7.15Z" transform="translate(-518.619 -657.393)" fill="#09183d"/>
      <path id="Path_91578" data-name="Path 91578" d="M739.655,801.821c-1.374,0-8.917-.112-10.024-.336a13.813,13.813,0,0,1-2.923-.9q-1.262-.567-2.229-1.113l2.312-4.457a6.322,6.322,0,0,0,1.094.419q.588.169,1.241.3a13.471,13.471,0,0,0,1.366.189c.477.041.966.064,1.471.064h7.944v5.844h-.253Z" transform="translate(-662.241 -769.708)" fill="#09183d"/>
      <path id="Path_91579" data-name="Path 91579" d="M823.583,806.251H824V812.1h-.421c-.841,0-7.563-.98-7.563-2.943s6.722-2.9,7.563-2.9" transform="translate(-745.917 -779.982)" fill="#09183d"/>
      <path id="Path_91580" data-name="Path 91580" d="M900.309,913.871l-4.079-4.12,3.827-4.121,4.078,4.121Z" transform="translate(-819.237 -870.825)" fill="#09183d"/>
      <path id="Path_91581" data-name="Path 91581" d="M904.06,668.93v-5.844H911.5a12.285,12.285,0,0,0-1.156-3.931,30.964,30.964,0,0,0-2.375-4.1l5.3-5.424a36.542,36.542,0,0,1,2.186,5.341,20.771,20.771,0,0,1-.462,13.96H904.06Z" transform="translate(-826.394 -636.817)" fill="#09183d"/>
      <path id="Path_91582" data-name="Path 91582" d="M985.48,913.871l-4.08-4.12,3.91-4.121,4.08,4.121Z" transform="translate(-897.09 -870.825)" fill="#09183d"/>
      <path id="Path_91583" data-name="Path 91583" d="M427.238,506.034a2.949,2.949,0,0,1-2.3-1,3.679,3.679,0,0,1-.9-2.548v-2H425.8v2a2.027,2.027,0,0,0,.387,1.318,1.285,1.285,0,0,0,1.054.474q1.406,0,1.406-1.617v-1.3H430.4v1.3a3.456,3.456,0,0,1-.861,2.442,2.983,2.983,0,0,1-2.3.932Z" transform="translate(-387.612 -500.48)" fill="#09183d"/>
      <path id="Path_91584" data-name="Path 91584" d="M444.382,574.95l.492,1.9-8.892,2.32-.492-1.9Z" transform="translate(-398.078 -568.552)" fill="#09183d"/>
      <path id="Path_91585" data-name="Path 91585" d="M480.793,506.043a2.98,2.98,0,0,1-2.3-.932,3.45,3.45,0,0,1-.861-2.442v-1.3h1.757v1.3q0,1.617,1.406,1.617a1.29,1.29,0,0,0,1.055-.474,2.035,2.035,0,0,0,.386-1.318v-2h1.758v2a3.722,3.722,0,0,1-.879,2.548,2.934,2.934,0,0,1-2.32,1Z" transform="translate(-436.598 -500.489)" fill="#09183d"/>
      <g id="Group_109451" data-name="Group 109451" transform="translate(78.379 6.343)" style="mix-blend-mode: normal;isolation: isolate">
        <path id="Path_91586" data-name="Path 91586" d="M921.2,574.31l.489,1.887-8.838,2.3-.489-1.887Z" transform="translate(-912.36 -574.31)" fill="#09183d"/>
      </g>
      <path id="Path_91587" data-name="Path 91587" d="M2.07,610.081a2.025,2.025,0,0,1-1.035-.273,2.11,2.11,0,0,1-.753-.735A1.913,1.913,0,0,1,0,608.055a1.94,1.94,0,0,1,.283-1.026,2.071,2.071,0,0,1,.753-.73,2.047,2.047,0,0,1,1.035-.269,2.056,2.056,0,0,1,.8.156,2.14,2.14,0,0,1,.659.435,2.03,2.03,0,0,1,.448.645,2.01,2.01,0,0,1-.117,1.806,2.07,2.07,0,0,1-.748.735,2.041,2.041,0,0,1-1.045.273Zm0-.314a1.685,1.685,0,0,0,.878-.234,1.83,1.83,0,0,0,.636-.623,1.588,1.588,0,0,0,.242-.857,1.623,1.623,0,0,0-.242-.869,1.8,1.8,0,0,0-.636-.613,1.724,1.724,0,0,0-.878-.229,1.716,1.716,0,0,0-.878.229,1.8,1.8,0,0,0-.636.613,1.6,1.6,0,0,0-.241.869,1.564,1.564,0,0,0,.241.857,1.837,1.837,0,0,0,.636.623A1.685,1.685,0,0,0,2.07,609.767Zm-.663-.672v-2.142H2.2a.663.663,0,0,1,.489.183.652.652,0,0,1,.184.48.575.575,0,0,1-.192.443.683.683,0,0,1-.479.175H1.6l.1-.053v.914H1.408Zm.287-1.049-.09-.054h.5a.506.506,0,0,0,.34-.107.342.342,0,0,0,.125-.269.363.363,0,0,0-.113-.287.494.494,0,0,0-.336-.1H1.568l.125-.072v.887Zm.8,1.049-.35-.923.269-.082.4,1Z" transform="translate(0 -596.963)" fill="#041840"/>
    </g>
  </g>
</svg>
