<svg width="22" height="19" viewBox="0 0 22 19" fill="none" xmlns="http://www.w3.org/2000/svg">
<path d="M8.85519 2.07299C9.07733 1.70291 9.39151 1.39664 9.76714 1.18401C10.1428 0.971375 10.567 0.859619 10.9987 0.859619C11.4303 0.859619 11.8546 0.971375 12.2302 1.18401C12.6059 1.39664 12.92 1.70291 13.1422 2.07299L20.7272 14.714C20.9547 15.0933 21.0775 15.5262 21.0831 15.9684C21.0887 16.4107 20.9768 16.8466 20.759 17.2315C20.5411 17.6164 20.225 17.9366 19.8429 18.1595C19.4608 18.3823 19.0265 18.4998 18.5842 18.5H3.41419C2.97179 18.5 2.53732 18.3826 2.15511 18.1599C1.7729 17.9371 1.45666 17.6169 1.23866 17.2319C1.02066 16.847 0.90872 16.4111 0.914258 15.9687C0.919797 15.5263 1.04262 15.0934 1.27019 14.714L8.85519 2.07299Z" fill="#689A4A"/>
</svg>
