<svg id="Icon_01" xmlns="http://www.w3.org/2000/svg" xmlns:xlink="http://www.w3.org/1999/xlink" width="39.982" height="32.638" viewBox="0 0 39.982 32.638">
  <defs>
    <clipPath id="clip-path">
      <rect id="Rectangle_38077" data-name="Rectangle 38077" width="39.982" height="32.638" fill="#b39d74" stroke="#b39d74" stroke-width="0.5"/>
    </clipPath>
  </defs>
  <g id="Group_98944" data-name="Group 98944" transform="translate(0 0)" clip-path="url(#clip-path)">
    <path id="Path_63170" data-name="Path 63170" d="M39.208,3.568H30.194V1.788h.528q4.283,0,8.566,0a.715.715,0,0,0,.672-.325,3.556,3.556,0,0,1,5.748-.014.76.76,0,0,0,.71.341c2.538-.012,5.076-.007,7.614-.007h.53V3.569H46.455a3.373,3.373,0,0,1-1.048,2.518,6.628,6.628,0,0,1-1.316.848c-.232.126-.377.22-.377.523q.014,9.675.008,19.35c0,.1.016.2.029.352H55.474v1.769H30.206V27.184h11.72c.01-.205.024-.366.024-.527q0-9.539.007-19.078a.592.592,0,0,0-.431-.665,3.394,3.394,0,0,1-2.263-3.006c-.009-.089-.028-.176-.056-.341m3.654,1.845a1.733,1.733,0,0,0,1.8-1.84,1.765,1.765,0,0,0-1.84-1.807,1.788,1.788,0,0,0-1.809,1.807,1.766,1.766,0,0,0,1.854,1.841" transform="translate(-22.867 1.855)" fill="#b39d74" stroke="#b39d74" stroke-width="0.5"/>
    <path id="Path_63171" data-name="Path 63171" d="M127.181,30.762c.746,1.2,1.458,2.354,2.175,3.5,1.541,2.47,3.077,4.943,4.635,7.4a2.972,2.972,0,0,1,.388,1.308,2.8,2.8,0,0,1-1.108,2.691c-1.03.879-1.93,1.91-2.9,2.864a.67.67,0,0,1-.426.168q-2.808.017-5.617,0a.8.8,0,0,1-.492-.227q-1.856-1.827-3.683-3.682a1.83,1.83,0,0,1-.257-.533c-.006-.013,0-.03,0-.045a4.924,4.924,0,0,1,.939-3.462c2.069-3.134,4.031-6.339,6.035-9.516.088-.14.183-.276.31-.468m4.559,10.7-4.551-7.394-4.662,7.394Zm-10.2,1.821a3.339,3.339,0,0,0,.393.76q1.291,1.336,2.631,2.623a.942.942,0,0,0,.585.237q1.993.031,3.987,0a.881.881,0,0,0,.549-.219c.9-.87,1.778-1.767,2.675-2.643a.624.624,0,0,0,.166-.759Z" transform="translate(-96.28 -23.332)" fill="#b39d74" stroke="#b39d74" stroke-width="0.5"/>
    <path id="Path_63172" data-name="Path 63172" d="M7.288,30.868C9.421,34.28,11.5,37.661,13.642,41a4.507,4.507,0,0,1,.844,2.95A1.6,1.6,0,0,1,14,45.119c-1.192,1.133-2.331,2.322-3.5,3.48a.669.669,0,0,1-.419.186q-2.831.018-5.662,0a.734.734,0,0,1-.457-.206Q2.078,46.717.218,44.83a.764.764,0,0,1-.2-.462c-.024-.558-.017-1.117,0-1.675a.868.868,0,0,1,.114-.423q3.488-5.584,6.988-11.16c.046-.074.1-.142.174-.242M2.642,41.539h9.2L7.3,34.16l-4.656,7.38m10.137,1.943-.145-.1H1.676a2.821,2.821,0,0,0,.349.736c.87.9,1.76,1.785,2.661,2.656a.876.876,0,0,0,.547.222c1.329.019,2.658.022,3.987,0a1.01,1.01,0,0,0,.62-.264q1.309-1.253,2.568-2.556a2.866,2.866,0,0,0,.371-.689" transform="translate(1.854 -23.419)" fill="#b39d74" stroke="#b39d74" stroke-width="0.5"/>
  </g>
</svg>
