<svg id="Group_98161" data-name="Group 98161" xmlns="http://www.w3.org/2000/svg" xmlns:xlink="http://www.w3.org/1999/xlink" width="26.374" height="20.523" viewBox="0 0 26.374 20.523">
  <defs>
    <clipPath id="clip-path">
      <rect id="Rectangle_18060" data-name="Rectangle 18060" width="26.374" height="20.523" fill="#fff" stroke="#22499c" stroke-width="1"/>
    </clipPath>
  </defs>
  <g id="Group_96954" data-name="Group 96954" clip-path="url(#clip-path)">
    <path id="Path_61061" data-name="Path 61061" d="M13.146,20.523A12.371,12.371,0,0,1,5.923,18.1,17.267,17.267,0,0,1,.173,11a1.736,1.736,0,0,1,0-1.517A17.075,17.075,0,0,1,6.91,1.745,11.722,11.722,0,0,1,12.2.037,12.487,12.487,0,0,1,21.669,3.4a18.583,18.583,0,0,1,4.544,6.154,1.552,1.552,0,0,1,0,1.382A17.909,17.909,0,0,1,20.257,18.2a11.854,11.854,0,0,1-6.38,2.255c-.244.01-.487.041-.731.063M13,18.331a10.218,10.218,0,0,0,5.342-1.481,15.3,15.3,0,0,0,5.643-6.275.631.631,0,0,0,.009-.643,16.1,16.1,0,0,0-4-5.108A10.572,10.572,0,0,0,14.3,2.24,10.137,10.137,0,0,0,6.5,4.67,15.9,15.9,0,0,0,2.309,9.951a.587.587,0,0,0,.01.6,16.957,16.957,0,0,0,3.449,4.623A10.828,10.828,0,0,0,13,18.331" transform="translate(0 0)" fill="#fff" stroke="#22499c" stroke-width="1"/>
    <path id="Path_61062" data-name="Path 61062" d="M49.662,35.617A5.852,5.852,0,1,1,55.5,41.483a5.855,5.855,0,0,1-5.842-5.866m2.2-.066a3.559,3.559,0,0,0,2.25,3.473,3.682,3.682,0,0,0,4.461-5.465A3.479,3.479,0,0,0,55.429,32a3,3,0,0,1-3.567,3.553" transform="translate(-42.352 -25.375)" fill="#fff" stroke="#22499c" stroke-width="1"/>
  </g>
</svg>
