<svg width="60" height="5" viewBox="0 0 60 5" fill="none" xmlns="http://www.w3.org/2000/svg">
<path d="M0 4.27206C14.6935 2.32802 29.4822 1.18699 44.3 0.854059C44.963 0.848059 48.335 0.810059 48.931 0.810059C50.636 0.836059 52.791 0.836059 54.495 0.881059C55.173 0.903059 58.404 1.01806 59.132 1.04306C59.206 1.04389 59.279 1.05971 59.3467 1.08957C59.4144 1.11943 59.4753 1.1627 59.5258 1.21678C59.5762 1.27086 59.6152 1.33461 59.6403 1.40419C59.6655 1.47376 59.6762 1.54771 59.672 1.62156C59.6677 1.69541 59.6485 1.76763 59.6155 1.83385C59.5826 1.90006 59.5365 1.95891 59.4801 2.00681C59.4238 2.05472 59.3583 2.0907 59.2876 2.11257C59.2169 2.13444 59.1426 2.14175 59.069 2.13406L54.46 1.88806C52.766 1.81006 50.62 1.77206 48.923 1.71506C48.351 1.71006 44.955 1.68006 44.3 1.67406C29.4971 1.73399 14.7084 2.60128 0 4.27206Z" fill="#B39D74"/>
</svg>
